<svg width="43" height="43" viewBox="0 0 43 43" fill="none" xmlns="http://www.w3.org/2000/svg">
<path fill-rule="evenodd" clip-rule="evenodd" d="M1.00859 4.82877C0 6.77039 0 9.32123 0 14.4229V28.5771C0 33.6788 0 36.2296 1.00859 38.1712C1.85851 39.8074 3.19259 41.1415 4.82877 41.9914C6.77039 43 9.32123 43 14.4229 43H28.5771C33.6788 43 36.2296 43 38.1712 41.9914C39.8074 41.1415 41.1415 39.8074 41.9914 38.1712C43 36.2296 43 33.6788 43 28.5771V14.4229C43 9.32123 43 6.77039 41.9914 4.82877C41.1415 3.19259 39.8074 1.85851 38.1712 1.00859C36.2296 0 33.6788 0 28.5771 0H14.4229C9.32123 0 6.77039 0 4.82877 1.00859C3.19259 1.85851 1.85851 3.19259 1.00859 4.82877ZM30.8167 21.5L29.8611 27.4722H25.0833V43H17.9167V27.4722H12.5417V21.5H17.9167V16.7222C17.9167 11.3472 21.3806 8.36109 26.2778 8.36109C27.8306 8.36109 29.5028 8.59998 31.0556 8.83887V14.3333H28.3083C25.6806 14.3333 25.0833 15.6472 25.0833 17.3194V21.5H30.8167Z" fill="#7D5DD5"/>
</svg>
