<svg width="43" height="43" viewBox="0 0 43 43" fill="none" xmlns="http://www.w3.org/2000/svg">
<g clip-path="url(#clip0_128_84)">
<path fill-rule="evenodd" clip-rule="evenodd" d="M1.03312 4.82877C0.0245361 6.77039 0.0245361 9.32123 0.0245361 14.4229V28.5771C0.0245361 33.6788 0.0245361 36.2296 1.03312 38.1712C1.88305 39.8074 3.21713 41.1415 4.85331 41.9914C6.79492 43 9.34577 43 14.4475 43H28.6016C33.7033 43 36.2542 43 38.1958 41.9914C39.8319 41.1415 41.166 39.8074 42.0159 38.1712C43.0245 36.2296 43.0245 33.6788 43.0245 28.5771V14.4229C43.0245 9.32123 43.0245 6.77039 42.0159 4.82877C41.166 3.19259 39.8319 1.85851 38.1958 1.00859C36.2542 0 33.7033 0 28.6016 0H14.4475C9.34577 0 6.79492 0 4.85331 1.00859C3.21713 1.85851 1.88305 3.19259 1.03312 4.82877ZM15.0534 5.95812C16.7213 5.88222 17.2542 5.86365 21.5006 5.86365H21.4958C25.7435 5.86365 26.2745 5.88222 27.9423 5.95812C29.6069 6.03435 30.7437 6.29789 31.7405 6.68456C32.7699 7.08361 33.6396 7.61786 34.5094 8.48763C35.3791 9.35675 35.9133 10.2291 36.314 11.2575C36.6984 12.2518 36.9623 13.388 37.0404 15.0526C37.1154 16.7205 37.1349 17.2534 37.1349 21.5C37.1349 25.7466 37.1154 26.2782 37.0404 27.9461C36.9623 29.6101 36.6984 30.7466 36.314 31.7412C35.9133 32.7693 35.3791 33.6416 34.5094 34.5108C33.6406 35.3805 32.7696 35.9161 31.7415 36.3155C30.7467 36.7021 29.6092 36.9657 27.9446 37.0419C26.2768 37.1178 25.7455 37.1364 21.4987 37.1364C17.2526 37.1364 16.72 37.1178 15.0521 37.0419C13.3879 36.9657 12.2514 36.7021 11.2565 36.3155C10.2288 35.9161 9.35644 35.3805 8.48767 34.5108C7.61825 33.6416 7.08402 32.7693 6.68433 31.7409C6.29799 30.7466 6.03446 29.6104 5.95791 27.9458C5.88234 26.2779 5.86345 25.7466 5.86345 21.5C5.86345 17.2534 5.88299 16.7202 5.95759 15.0523C6.03251 13.3883 6.29636 12.2518 6.684 11.2572C7.08467 10.2291 7.6189 9.35675 8.48865 8.48763C9.35774 7.61818 10.2301 7.08394 11.2585 6.68456C12.2527 6.29789 13.3889 6.03435 15.0534 5.95812ZM20.9795 8.6813C20.6633 8.68116 20.3703 8.68103 20.098 8.68145V8.67754C17.1838 8.6808 16.6248 8.70035 15.1824 8.7655C13.6579 8.83554 12.8302 9.08963 12.279 9.30463C11.5494 9.58869 11.0282 9.92748 10.4809 10.4747C9.93366 11.022 9.59423 11.5432 9.31083 12.2729C9.09682 12.8241 8.84208 13.6515 8.77237 15.1761C8.69745 16.8244 8.68247 17.317 8.68247 21.4925C8.68247 25.6681 8.69745 26.1632 8.77237 27.8116C8.84176 29.3361 9.09682 30.1635 9.31083 30.7141C9.59489 31.4441 9.93366 31.964 10.4809 32.5113C11.0282 33.0585 11.5494 33.3973 12.279 33.6807C12.8305 33.8948 13.6579 34.1495 15.1824 34.2199C16.8307 34.2948 17.3255 34.3111 21.5006 34.3111C25.6754 34.3111 26.1706 34.2948 27.8188 34.2199C29.3433 34.1502 30.1714 33.8961 30.7219 33.6811C31.4519 33.3977 31.9715 33.0589 32.5187 32.5116C33.066 31.9646 33.4054 31.4451 33.6888 30.7154C33.9028 30.1648 34.1576 29.3374 34.2273 27.8129C34.3022 26.1645 34.3185 25.6694 34.3185 21.4964C34.3185 17.3235 34.3022 16.8283 34.2273 15.18C34.1579 13.6554 33.9028 12.828 33.6888 12.2775C33.4048 11.5478 33.066 11.0266 32.5187 10.4793C31.9718 9.93204 31.4516 9.59325 30.7219 9.30984C30.1707 9.09582 29.3433 8.84107 27.8188 8.77136C26.1702 8.69644 25.6754 8.68145 21.5006 8.68145C21.3202 8.68145 21.1466 8.68138 20.9795 8.6813ZM27.9706 13.1535C27.9706 12.1172 28.8111 11.2777 29.8469 11.2777V11.2771C30.8828 11.2771 31.7233 12.1175 31.7233 13.1535C31.7233 14.1894 30.8828 15.0298 29.8469 15.0298C28.8111 15.0298 27.9706 14.1894 27.9706 13.1535ZM13.471 21.5C13.471 17.0656 17.0661 13.4703 21.5003 13.4701C25.9347 13.4701 29.529 17.0655 29.529 21.5C29.529 25.9345 25.935 29.5283 21.5006 29.5283C17.0662 29.5283 13.471 25.9345 13.471 21.5ZM26.7126 21.5C26.7126 18.6213 24.3789 16.2879 21.5006 16.2879C18.622 16.2879 16.2887 18.6213 16.2887 21.5C16.2887 24.3784 18.622 26.7121 21.5006 26.7121C24.3789 26.7121 26.7126 24.3784 26.7126 21.5Z" fill="url(#paint0_radial_128_84)"/>
<path fill-rule="evenodd" clip-rule="evenodd" d="M1.03312 4.82877C0.0245361 6.77039 0.0245361 9.32123 0.0245361 14.4229V28.5771C0.0245361 33.6788 0.0245361 36.2296 1.03312 38.1712C1.88305 39.8074 3.21713 41.1415 4.85331 41.9914C6.79492 43 9.34577 43 14.4475 43H28.6016C33.7033 43 36.2542 43 38.1958 41.9914C39.8319 41.1415 41.166 39.8074 42.0159 38.1712C43.0245 36.2296 43.0245 33.6788 43.0245 28.5771V14.4229C43.0245 9.32123 43.0245 6.77039 42.0159 4.82877C41.166 3.19259 39.8319 1.85851 38.1958 1.00859C36.2542 0 33.7033 0 28.6016 0H14.4475C9.34577 0 6.79492 0 4.85331 1.00859C3.21713 1.85851 1.88305 3.19259 1.03312 4.82877ZM15.0534 5.95812C16.7213 5.88222 17.2542 5.86365 21.5006 5.86365H21.4958C25.7435 5.86365 26.2745 5.88222 27.9423 5.95812C29.6069 6.03435 30.7437 6.29789 31.7405 6.68456C32.7699 7.08361 33.6396 7.61786 34.5094 8.48763C35.3791 9.35675 35.9133 10.2291 36.314 11.2575C36.6984 12.2518 36.9623 13.388 37.0404 15.0526C37.1154 16.7205 37.1349 17.2534 37.1349 21.5C37.1349 25.7466 37.1154 26.2782 37.0404 27.9461C36.9623 29.6101 36.6984 30.7466 36.314 31.7412C35.9133 32.7693 35.3791 33.6416 34.5094 34.5108C33.6406 35.3805 32.7696 35.9161 31.7415 36.3155C30.7467 36.7021 29.6092 36.9657 27.9446 37.0419C26.2768 37.1178 25.7455 37.1364 21.4987 37.1364C17.2526 37.1364 16.72 37.1178 15.0521 37.0419C13.3879 36.9657 12.2514 36.7021 11.2565 36.3155C10.2288 35.9161 9.35644 35.3805 8.48767 34.5108C7.61825 33.6416 7.08402 32.7693 6.68433 31.7409C6.29799 30.7466 6.03446 29.6104 5.95791 27.9458C5.88234 26.2779 5.86345 25.7466 5.86345 21.5C5.86345 17.2534 5.88299 16.7202 5.95759 15.0523C6.03251 13.3883 6.29636 12.2518 6.684 11.2572C7.08467 10.2291 7.6189 9.35675 8.48865 8.48763C9.35774 7.61818 10.2301 7.08394 11.2585 6.68456C12.2527 6.29789 13.3889 6.03435 15.0534 5.95812ZM20.9795 8.6813C20.6633 8.68116 20.3703 8.68103 20.098 8.68145V8.67754C17.1838 8.6808 16.6248 8.70035 15.1824 8.7655C13.6579 8.83554 12.8302 9.08963 12.279 9.30463C11.5494 9.58869 11.0282 9.92748 10.4809 10.4747C9.93366 11.022 9.59423 11.5432 9.31083 12.2729C9.09682 12.8241 8.84208 13.6515 8.77237 15.1761C8.69745 16.8244 8.68247 17.317 8.68247 21.4925C8.68247 25.6681 8.69745 26.1632 8.77237 27.8116C8.84176 29.3361 9.09682 30.1635 9.31083 30.7141C9.59489 31.4441 9.93366 31.964 10.4809 32.5113C11.0282 33.0585 11.5494 33.3973 12.279 33.6807C12.8305 33.8948 13.6579 34.1495 15.1824 34.2199C16.8307 34.2948 17.3255 34.3111 21.5006 34.3111C25.6754 34.3111 26.1706 34.2948 27.8188 34.2199C29.3433 34.1502 30.1714 33.8961 30.7219 33.6811C31.4519 33.3977 31.9715 33.0589 32.5187 32.5116C33.066 31.9646 33.4054 31.4451 33.6888 30.7154C33.9028 30.1648 34.1576 29.3374 34.2273 27.8129C34.3022 26.1645 34.3185 25.6694 34.3185 21.4964C34.3185 17.3235 34.3022 16.8283 34.2273 15.18C34.1579 13.6554 33.9028 12.828 33.6888 12.2775C33.4048 11.5478 33.066 11.0266 32.5187 10.4793C31.9718 9.93204 31.4516 9.59325 30.7219 9.30984C30.1707 9.09582 29.3433 8.84107 27.8188 8.77136C26.1702 8.69644 25.6754 8.68145 21.5006 8.68145C21.3202 8.68145 21.1466 8.68138 20.9795 8.6813ZM27.9706 13.1535C27.9706 12.1172 28.8111 11.2777 29.8469 11.2777V11.2771C30.8828 11.2771 31.7233 12.1175 31.7233 13.1535C31.7233 14.1894 30.8828 15.0298 29.8469 15.0298C28.8111 15.0298 27.9706 14.1894 27.9706 13.1535ZM13.471 21.5C13.471 17.0656 17.0661 13.4703 21.5003 13.4701C25.9347 13.4701 29.529 17.0655 29.529 21.5C29.529 25.9345 25.935 29.5283 21.5006 29.5283C17.0662 29.5283 13.471 25.9345 13.471 21.5ZM26.7126 21.5C26.7126 18.6213 24.3789 16.2879 21.5006 16.2879C18.622 16.2879 16.2887 18.6213 16.2887 21.5C16.2887 24.3784 18.622 26.7121 21.5006 26.7121C24.3789 26.7121 26.7126 24.3784 26.7126 21.5Z" fill="#7D5DD5"/>
</g>
<defs>
<radialGradient id="paint0_radial_128_84" cx="0" cy="0" r="1" gradientUnits="userSpaceOnUse" gradientTransform="translate(11.4465 46.3119) rotate(-90) scale(42.6162 39.6364)">
<stop stop-color="#FFDD55"/>
<stop offset="0.1" stop-color="#FFDD55"/>
<stop offset="0.5" stop-color="#FF543E"/>
<stop offset="1" stop-color="#C837AB"/>
</radialGradient>
<clipPath id="clip0_128_84">
<rect width="43" height="43" fill="white"/>
</clipPath>
</defs>
</svg>
