<svg width="43" height="43" viewBox="0 0 43 43" fill="none" xmlns="http://www.w3.org/2000/svg">
<path fill-rule="evenodd" clip-rule="evenodd" d="M1.00859 4.82877C0 6.77039 0 9.32123 0 14.4229V28.5771C0 33.6788 0 36.2296 1.00859 38.1712C1.85851 39.8074 3.19259 41.1415 4.82877 41.9914C6.77039 43 9.32123 43 14.4229 43H28.5771C33.6788 43 36.2296 43 38.1712 41.9914C39.8074 41.1415 41.1415 39.8074 41.9914 38.1712C43 36.2296 43 33.6788 43 28.5771V14.4229C43 9.32123 43 6.77039 41.9914 4.82877C41.1415 3.19259 39.8074 1.85851 38.1712 1.00859C36.2296 0 33.6788 0 28.5771 0H14.4229C9.32123 0 6.77039 0 4.82877 1.00859C3.19259 1.85851 1.85851 3.19259 1.00859 4.82877ZM9.65154 13.3538C11.7117 13.3538 13.3818 11.6837 13.3818 9.62358C13.3818 7.56343 11.7117 5.89334 9.65154 5.89334C7.59138 5.89334 5.92129 7.56343 5.92129 9.62358C5.92129 11.6837 7.59138 13.3538 9.65154 13.3538ZM16.798 16.1106H22.9803V18.9427C22.9803 18.9427 24.6579 15.5874 29.2225 15.5874C33.2943 15.5874 36.6673 17.5933 36.6673 23.7073V36.6001H30.2608V25.2696C30.2608 21.6629 28.3352 21.2662 26.868 21.2662C23.8229 21.2662 23.3015 23.8928 23.3015 25.7401V36.6001H16.798V16.1106ZM12.9033 16.1106H6.39979V36.6001H12.9033V16.1106Z" fill="#7D5DD5"/>
</svg>
