<svg width="43" height="43" viewBox="0 0 43 43" fill="none" xmlns="http://www.w3.org/2000/svg">
<path fill-rule="evenodd" clip-rule="evenodd" d="M1.00859 4.82877C0 6.77039 0 9.32123 0 14.4229V28.5771C0 33.6788 0 36.2296 1.00859 38.1712C1.85851 39.8074 3.19259 41.1415 4.82877 41.9914C6.77039 43 9.32123 43 14.4229 43H28.5771C33.6788 43 36.2296 43 38.1712 41.9914C39.8074 41.1415 41.1415 39.8074 41.9914 38.1712C43 36.2296 43 33.6788 43 28.5771V14.4229C43 9.32123 43 6.77039 41.9914 4.82877C41.1415 3.19259 39.8074 1.85851 38.1712 1.00859C36.2296 0 33.6788 0 28.5771 0H14.4229C9.32123 0 6.77039 0 4.82877 1.00859C3.19259 1.85851 1.85851 3.19259 1.00859 4.82877ZM33.449 17.067C33.449 16.7984 33.4455 16.5299 33.4351 16.2614C34.5474 15.3946 35.5103 14.3083 36.2754 13.0753C35.2557 13.5636 34.1562 13.8929 33.0034 14.0394C34.1816 13.2825 35.0832 12.0742 35.5103 10.6337C34.4085 11.3417 33.1909 11.8544 31.8911 12.123C30.8529 10.9266 29.3738 10.1818 27.7361 10.1818C24.5902 10.1818 22.0405 12.9409 22.0405 16.3469C22.0405 16.823 22.0903 17.299 22.1875 17.7507C17.4549 17.4943 13.257 15.0405 10.4491 11.3049C9.95607 12.2205 9.67598 13.2826 9.67598 14.4057C9.67598 16.5421 10.6818 18.4343 12.2119 19.5452C11.2778 19.5086 10.3982 19.2279 9.62971 18.7763V18.8496C9.62971 21.8405 11.5938 24.3309 14.2014 24.8924C13.7199 25.0389 13.2176 25.1121 12.7003 25.1121C12.3334 25.1121 11.9746 25.0753 11.6262 25.0021C12.3519 27.4437 14.4561 29.2382 16.9479 29.2749C14.9989 30.9351 12.5417 31.9242 9.87392 31.9242C9.41443 31.9242 8.96188 31.8875 8.51628 31.8386C11.0371 33.5844 14.029 34.6099 17.2466 34.6099C27.721 34.6099 33.449 25.2096 33.449 17.067Z" fill="#7D5DD5"/>
</svg>
