<svg width="70" height="72" viewBox="0 0 70 72" fill="none" xmlns="http://www.w3.org/2000/svg">
<path fill-rule="evenodd" clip-rule="evenodd" d="M56.5 64.1875V71.875H61.625V61.625C61.625 60.9454 61.355 60.2936 60.8744 59.813C60.3939 59.3325 59.7421 59.0625 59.0625 59.0625H46.25C44.2118 59.0603 42.2578 58.2496 40.8166 56.8084C39.3754 55.3672 38.5647 53.4132 38.5625 51.375V46.25C38.5625 45.7122 38.3933 45.188 38.0788 44.7516C37.7643 44.3153 37.3205 43.989 36.8102 43.819L32.1532 42.2668L38.1971 32.1931C38.4362 31.795 38.5625 31.3394 38.5625 30.875V23.1875C38.5678 18.4318 40.4593 13.8724 43.8221 10.5096C47.1849 7.14683 51.7443 5.25529 56.5 5.25H69.3125V0.125H56.5C50.3855 0.131783 44.5234 2.56375 40.1998 6.88734C35.8762 11.2109 33.4443 17.073 33.4375 23.1875V30.1649L26.1154 42.3694C25.918 42.6984 25.797 43.0675 25.7614 43.4496C25.7257 43.8316 25.7763 44.2168 25.9094 44.5766C26.0426 44.9365 26.2548 45.2619 26.5305 45.5287C26.8061 45.7956 27.1382 45.9972 27.5022 46.1185L33.4375 48.0968V51.375C33.4412 54.7719 34.7923 58.0287 37.1943 60.4307C39.5963 62.8327 42.853 64.1838 46.25 64.1875H56.5ZM43.6875 25.75H53.9375V30.875H43.6875V25.75ZM18.9145 59.6168C17.0341 57.9342 15.5297 55.8738 14.4998 53.5701C13.4699 51.2665 12.9375 48.7715 12.9375 46.2481C12.9375 43.7248 13.4699 41.2298 14.4998 38.9262C15.5297 36.6225 17.0341 34.5621 18.9145 32.8795L22.3329 36.6976C20.9892 37.8994 19.9142 39.3712 19.1783 41.0168C18.4423 42.6625 18.0619 44.4449 18.0619 46.2476C18.0619 48.0504 18.4423 49.8328 19.1783 51.4784C19.9142 53.1241 20.9892 54.5959 22.3329 55.7977L18.9145 59.6168ZM3.10085 58.8569C5.05743 62.771 7.89826 66.1759 11.3985 68.802L14.475 64.7036C11.6104 62.5552 9.28546 59.7693 7.68413 56.5666C6.08281 53.364 5.24913 49.8325 5.24913 46.2518C5.24913 42.6711 6.08281 39.1396 7.68413 35.9369C9.28546 32.7343 11.6104 29.9484 14.475 27.8L11.3985 23.7005C7.89826 26.3267 5.05743 29.7315 3.10085 33.6456C1.14428 37.5596 0.125671 41.8754 0.125671 46.2513C0.125671 50.6271 1.14428 54.9429 3.10085 58.8569Z" fill="url(#paint0_linear_519_30)"/>
<defs>
<linearGradient id="paint0_linear_519_30" x1="34.7191" y1="0.125" x2="34.7191" y2="71.875" gradientUnits="userSpaceOnUse">
<stop stop-color="#E3D04F"/>
<stop offset="1" stop-color="#7D5DD5"/>
</linearGradient>
</defs>
</svg>
