<svg width="72" height="72" viewBox="0 0 72 72" fill="none" xmlns="http://www.w3.org/2000/svg">
<path fill-rule="evenodd" clip-rule="evenodd" d="M32.8683 7.4093C30.7612 6.00144 28.2841 5.25 25.75 5.25C22.3519 5.25 19.093 6.59988 16.6902 9.00269C14.2874 11.4055 12.9375 14.6644 12.9375 18.0625C12.9375 20.5966 13.6889 23.0737 15.0968 25.1807C16.5047 27.2877 18.5057 28.93 20.8469 29.8997C23.1881 30.8695 25.7642 31.1232 28.2496 30.6288C30.735 30.1344 33.018 28.9142 34.8098 27.1223C36.6017 25.3304 37.8219 23.0475 38.3163 20.5621C38.8107 18.0767 38.557 15.5005 37.5872 13.1594C36.6175 10.8182 34.9753 8.81715 32.8683 7.4093ZM15.7845 3.14801C18.7343 1.17702 22.2023 0.125 25.75 0.125C30.5073 0.125 35.0698 2.01484 38.4337 5.37877C41.7977 8.7427 43.6875 13.3052 43.6875 18.0625C43.6875 21.6102 42.6355 25.0782 40.6645 28.028C38.6935 30.9778 35.892 33.2769 32.6144 34.6346C29.3367 35.9922 25.7301 36.3475 22.2506 35.6553C18.771 34.9632 15.5749 33.2548 13.0663 30.7462C10.5577 28.2376 8.84929 25.0415 8.15717 21.5619C7.46505 18.0824 7.82027 14.4758 9.17792 11.1981C10.5356 7.92047 12.8347 5.11901 15.7845 3.14801ZM65.9813 39.2933L70.3749 43.6875C70.852 44.1624 71.2302 44.7272 71.4876 45.3492C71.7451 45.9711 71.8768 46.638 71.875 47.3111V71.875H0.125V59.0625C0.130426 54.3069 2.02201 49.7475 5.38477 46.3848C8.74752 43.022 13.3068 41.1304 18.0625 41.125H33.4375C38.1932 41.1303 42.7526 43.0218 46.1154 46.3846C49.4782 49.7474 51.3697 54.3068 51.375 59.0625V66.75H66.75V47.3111L62.3589 42.9188C61.3317 43.4192 60.2051 43.6819 59.0625 43.6875C57.5421 43.6875 56.0558 43.2366 54.7916 42.3919C53.5274 41.5472 52.542 40.3466 51.9602 38.9419C51.3783 37.5372 51.2261 35.9915 51.5227 34.5002C51.8193 33.009 52.5515 31.6392 53.6266 30.5641C54.7017 29.489 56.0715 28.7568 57.5627 28.4602C59.054 28.1636 60.5997 28.3158 62.0044 28.8977C63.4091 29.4795 64.6097 30.4649 65.4544 31.7291C66.2991 32.9933 66.75 34.4796 66.75 36C66.744 37.1415 66.4812 38.2671 65.9813 39.2933ZM9.00719 50.0072C6.60526 52.4091 5.25407 55.6657 5.25 59.0625V66.75H46.25V59.0625C46.246 55.6656 44.8948 52.4091 42.4929 50.0071C40.0909 47.6052 36.8344 46.254 33.4375 46.25H18.0625C14.6657 46.2541 11.4091 47.6053 9.00719 50.0072Z" fill="url(#paint0_linear_519_24)"/>
<defs>
<linearGradient id="paint0_linear_519_24" x1="36" y1="0.125" x2="36" y2="71.875" gradientUnits="userSpaceOnUse">
<stop stop-color="#E3D04F"/>
<stop offset="1" stop-color="#7D5DD5"/>
</linearGradient>
</defs>
</svg>
