<svg width="515" height="360" viewBox="0 0 515 360" fill="none" xmlns="http://www.w3.org/2000/svg">
<path d="M171.391 85.1516L171.945 170.104L86.9921 170.658C40.0741 170.963 1.79175 133.177 1.48597 86.2589C1.1802 39.341 38.9668 1.05859 85.8848 0.75282C132.803 0.447047 171.085 38.2337 171.391 85.1516ZM402.5 232.5H290.5V120.5C290.5 58.644 340.644 8.49992 402.5 8.49992C464.356 8.49992 514.5 58.644 514.5 120.5C514.5 182.356 464.356 232.5 402.5 232.5ZM227.201 321.731L227.444 358.958L190.216 359.201C169.656 359.335 152.88 342.776 152.746 322.216C152.612 301.656 169.171 284.88 189.731 284.746C210.291 284.612 227.067 301.171 227.201 321.731Z" stroke="url(#paint0_linear_519_43)"/>
<defs>
<linearGradient id="paint0_linear_519_43" x1="160.603" y1="297.715" x2="225.689" y2="353.201" gradientUnits="userSpaceOnUse">
<stop offset="0.0129622" stop-color="#4E2BB0" stop-opacity="0.79"/>
<stop offset="1" stop-color="white" stop-opacity="0.31"/>
</linearGradient>
</defs>
</svg>
