<svg width="256" height="88" viewBox="0 0 256 88" fill="none" xmlns="http://www.w3.org/2000/svg">
<path d="M93.1602 40.3237L92.8834 36.7369H96.4819L100.173 78.3992C100.357 80.4225 100.972 81.9554 102.018 82.9977C103.064 84.04 104.202 84.5612 105.432 84.5612C106.724 84.5612 107.892 84.04 108.938 82.9977C109.984 81.9554 110.599 80.4225 110.783 78.3992L114.382 36.7369H118.073L117.704 40.3237L114.474 78.3072C114.29 80.024 113.736 81.4649 112.813 82.6298C111.952 83.7334 110.876 84.5918 109.584 85.2049C108.292 85.7568 106.908 86.0327 105.432 86.0327C104.017 86.0327 102.664 85.7568 101.372 85.2049C100.08 84.5918 98.9731 83.7334 98.0504 82.6298C97.1277 81.4649 96.6049 80.024 96.4819 78.3072L93.1602 40.3237Z" fill="#373743"/>
<path d="M140.533 36.7369V38.4843H125.586V61.4768H136.566V63.3162H125.586V75.0883H125.678C125.678 77.4795 126.17 79.4109 127.155 80.8824C128.139 82.2926 129.338 83.2736 130.753 83.8254C132.168 84.3159 133.613 84.3772 135.09 84.0093C136.566 83.5802 137.827 82.6911 138.873 81.3422L140.718 83.3656C139.119 84.7144 137.243 85.5422 135.09 85.8487C132.998 86.1553 130.968 85.9714 129 85.2969C127.093 84.6225 125.463 83.4269 124.11 81.7101C122.756 79.9933 122.08 77.7861 122.08 75.0883V75.7321C122.018 75.4255 121.988 74.9657 121.988 74.3525V36.7369H140.533Z" fill="#373743"/>
<path d="M163.062 85.2969V72.4212C163.062 71.1336 162.847 69.938 162.416 68.8343C162.047 67.7307 161.524 66.7803 160.848 65.9833C160.171 65.1249 159.371 64.4504 158.449 63.9599C157.587 63.4694 156.634 63.2242 155.588 63.2242H151.067V61.3848H155.588C157.68 61.3848 159.433 60.4957 160.848 58.7177C162.324 56.8783 163.062 54.671 163.062 52.0958V46.9455C163.062 43.8799 162.262 41.5806 160.663 40.0478C159.125 38.515 157.403 37.7486 155.496 37.7486C153.651 37.7486 151.928 38.515 150.329 40.0478C148.791 41.5806 148.022 43.8799 148.022 46.9455V85.2969H144.424V46.9455C144.424 44.493 144.977 42.4697 146.085 40.8755C147.192 39.2201 148.545 37.9938 150.145 37.1967C151.805 36.3997 153.589 36.0011 155.496 36.0011C157.464 36.0011 159.248 36.3997 160.848 37.1967C162.508 37.9938 163.892 39.2201 165 40.8755C166.107 42.4697 166.661 44.493 166.661 46.9455V52.0958C166.661 54.3644 166.045 56.4184 164.815 58.2578C163.585 60.0972 161.986 61.4461 160.017 62.3045C161.986 63.1629 163.585 64.5118 164.815 66.3512C166.045 68.1292 166.661 70.1526 166.661 72.4212V85.2969H163.062Z" fill="#373743"/>
<path d="M193.061 52.0958C193.061 54.3644 192.446 56.4184 191.216 58.2578C189.986 60.0972 188.387 61.4461 186.418 62.3045C188.387 63.1629 189.986 64.5118 191.216 66.3512C192.446 68.1292 193.061 70.1526 193.061 72.4212V75.0883C193.061 77.5408 192.508 79.5948 191.401 81.2503C190.293 82.8444 188.909 84.04 187.249 84.8371C185.649 85.6341 183.865 86.0327 181.897 86.0327C179.99 86.0327 178.206 85.6341 176.545 84.8371C174.946 84.04 173.593 82.8444 172.486 81.2503C171.378 79.5948 170.825 77.5408 170.825 75.0883V46.9455C170.825 44.493 171.378 42.4697 172.486 40.8755C173.593 39.2201 174.946 37.9938 176.545 37.1967C178.206 36.3997 179.99 36.0011 181.897 36.0011C183.865 36.0011 185.649 36.3997 187.249 37.1967C188.909 37.9938 190.293 39.2201 191.401 40.8755C192.508 42.4697 193.061 44.493 193.061 46.9455V52.0958ZM189.463 46.9455C189.463 43.8799 188.663 41.5806 187.064 40.0478C185.526 38.515 183.804 37.7486 181.897 37.7486C180.052 37.7486 178.329 38.515 176.73 40.0478C175.192 41.5806 174.423 43.8799 174.423 46.9455V75.0883C174.423 78.1539 175.192 80.4532 176.73 81.986C178.329 83.4575 180.052 84.1933 181.897 84.1933C183.804 84.1933 185.526 83.4575 187.064 81.986C188.663 80.4532 189.463 78.1539 189.463 75.0883V72.4212C189.463 71.1336 189.248 69.938 188.817 68.8343C188.448 67.7307 187.925 66.7803 187.249 65.9833C186.572 65.1249 185.772 64.4504 184.85 63.9599C183.988 63.4694 183.035 63.2242 181.989 63.2242H177.468V61.3848H181.989C184.081 61.3848 185.834 60.4957 187.249 58.7177C188.725 56.8783 189.463 54.671 189.463 52.0958V46.9455Z" fill="#373743"/>
<path d="M219.462 75.0883C219.462 77.5408 218.909 79.5948 217.802 81.2503C216.694 82.8444 215.31 84.04 213.65 84.8371C212.05 85.6341 210.266 86.0327 208.298 86.0327C206.391 86.0327 204.607 85.6341 202.946 84.8371C201.347 84.04 199.994 82.8444 198.887 81.2503C197.779 79.5948 197.226 77.5408 197.226 75.0883V36.7369H200.824V75.0883C200.824 78.1539 201.593 80.4532 203.131 81.986C204.73 83.4575 206.453 84.1933 208.298 84.1933C210.205 84.1933 211.927 83.4575 213.465 81.986C215.064 80.4532 215.864 78.1539 215.864 75.0883V36.7369H219.462V75.0883Z" fill="#373743"/>
<path d="M224.167 44.5543C224.167 43.0828 224.413 41.8259 224.906 40.7836C225.398 39.6799 226.044 38.7602 226.843 38.0245C227.704 37.2887 228.658 36.7369 229.704 36.369C230.811 36.0011 231.918 35.8172 233.025 35.8172C234.378 35.8172 235.67 36.0931 236.9 36.6449C238.131 37.1967 239.176 37.9938 240.038 39.0361C240.899 37.9938 241.944 37.1967 243.175 36.6449C244.466 36.0931 245.789 35.8172 247.142 35.8172C248.249 35.8172 249.326 36.0011 250.372 36.369C251.417 36.7369 252.34 37.2887 253.14 38.0245C254.001 38.7602 254.677 39.6799 255.17 40.7836C255.723 41.8259 256 43.0828 256 44.5543V85.2969H252.402V44.0025C252.402 41.8565 251.848 40.2624 250.741 39.2201C249.633 38.1778 248.434 37.6566 247.142 37.6566C245.789 37.6566 244.559 38.1778 243.452 39.2201C242.406 40.2624 241.883 41.8565 241.883 44.0025V85.2969H238.284V44.0025C238.284 41.8565 237.731 40.2624 236.624 39.2201C235.516 38.1778 234.317 37.6566 233.025 37.6566C231.672 37.6566 230.442 38.1778 229.334 39.2201C228.289 40.2624 227.766 41.8565 227.766 44.0025V85.2969H224.167V44.5543Z" fill="#373743"/>
<path d="M45.8266 66.875C45.8266 55.2079 55.3153 45.7499 67.0202 45.7499C78.7251 45.7499 88.2138 55.2079 88.2138 66.875V88H67.0202C55.3153 88 45.8266 78.542 45.8266 66.875Z" fill="#373743"/>
<path d="M59.7539 0.348759C71.2676 -1.75138 82.3093 5.84962 84.4163 17.3261C86.5232 28.8025 78.8975 39.8085 67.3838 41.9087L46.5364 45.7113L42.7214 24.9314C40.6145 13.4549 48.2402 2.4489 59.7539 0.348759Z" fill="#E3D04F"/>
<path d="M0 45.7219C0 34.0549 9.4887 24.5969 21.1936 24.5969C32.8985 24.5969 42.3872 34.0549 42.3872 45.7219V66.847H21.1936C9.48869 66.847 0 57.389 0 45.7219Z" fill="#7D5DD5"/>
</svg>
